<?xml version="1.0"?><svg width="793.7007874015749" height="1122.5196850393702" xmlns="http://www.w3.org/2000/svg">
 <title>Praying Hands, Gold</title>

 <g>
  <title>Layer 1</title>
  <g id="layer1">
   <path fill="#e8af06" id="path2355" d="m552.160767,1030.472656c-8.508423,-2.010498 -29.545044,-11.132446 -49.127747,-21.302734c-18.836212,-9.782593 -38.721008,-19.948181 -44.188385,-22.590149c-5.467346,-2.642029 -9.923004,-5.856384 -9.901428,-7.143066c0.021576,-1.286682 3.629242,-21.288696 8.016998,-44.448914l7.977783,-42.109436l-7.312439,-12.230835c-9.910248,-16.575867 -27.66806,-38.202148 -30.122894,-36.684998c-1.098053,0.67865 -2.019287,5.645935 -2.047119,11.038391c-0.073151,14.161621 -7.782318,46.949158 -16.091766,68.439026c-29.941742,77.435303 -100.006042,113.506592 -169.771805,87.403931c-27.506088,-10.291321 -50.48291,-33.355042 -65.405334,-65.65271c-17.083725,-36.975464 -22.438614,-79.455933 -15.441162,-122.4953c3.526413,-21.690002 16.43869,-53.674194 31.968338,-79.186768l12.601028,-20.701477l-8.067291,-17.898926c-19.737869,-43.792419 -34.407059,-95.910522 -38.811035,-137.891541c-2.438614,-23.246216 -8.746201,-37.034363 -30.74437,-67.206268c-8.424706,-11.555023 -17.051872,-26.197174 -19.171509,-32.538086c-7.112015,-21.27594 -4.576591,-56.487915 8.23053,-114.304474c4.702614,-21.229553 4.805428,-23.459015 1.410469,-30.578339c-5.964706,-12.508118 -9.616982,-41.794586 -8.149765,-65.35083c1.466805,-23.550278 6.100235,-39.531631 13.854248,-47.785416c4.721741,-5.026031 4.846565,-6.185394 2.207977,-20.505493c-3.016518,-16.371277 -1.874008,-25.637177 3.992119,-32.37645c2.730515,-3.136963 3.733109,-9.342255 3.779785,-23.394165c0.076553,-23.065727 5.181717,-32.522484 19.94487,-36.945618c12.633163,-3.785004 20.62323,-0.017494 36.000671,16.975121c6.825043,7.541916 13.209534,13.712555 14.18779,13.712555c0.978271,0 3.848846,-2.631836 6.379135,-5.848541c9.653503,-12.272438 31.801193,-4.756714 54.648376,18.544685c17.568298,17.917603 41.008911,38.475342 71.344452,62.570114c25.015259,19.869034 35.091187,30.448441 42.118439,44.222977c6.110809,11.978149 10.436249,13.635834 16.260376,6.231674c8.751404,-11.125641 30.29599,-17.312653 36.987,-10.621643c1.544006,1.544022 2.807312,5.852753 2.807312,9.575043c0,14.174179 10.001892,55.216629 18.84433,77.327103c5.066956,12.66983 16.574127,36.037689 25.571472,51.928558c30.32843,53.565247 36.696686,71.339569 39.700165,110.806641c1.234375,16.219696 4.329712,36.325195 6.87854,44.678833c8.543335,28.000732 14.279602,53.31189 20.249878,89.352478c3.26062,19.683716 6.918945,39.523254 8.129517,44.087952c2.441956,9.207764 11.065674,18.350586 22.986267,24.369934c7.500305,3.787292 8.338867,3.747742 19.149048,-0.902649c14.557983,-6.262695 31.490845,-6.216553 48.51178,0.132263c7.366333,2.74762 20.762268,7.484802 29.769043,10.527161c9.006775,3.042419 20.838379,7.193359 26.292725,9.224487l9.916504,3.692871l-8.273071,8.589233c-10.597107,11.001892 -31.12384,41.724548 -40.776489,61.030334c-23.631897,47.265686 -43.828552,114.118896 -66.570862,220.356628c-2.095886,9.790833 -5.08783,19.411377 -6.648682,21.379028c-4.310181,5.433594 -17.562012,6.404419 -34.093811,2.497803zm-225.846039,-134.141846c22.240936,-11.20343 46.950012,-35.837524 56.574738,-56.403076c11.942902,-25.51886 11.719971,-26.434143 -10.020172,-41.145508c-61.207428,-41.418396 -112.224701,-124.018005 -129.848389,-210.231262c-2.607361,-12.754944 -6.361725,-28.8172 -8.343079,-35.693848c-3.411545,-11.840454 -3.936462,-12.42218 -9.906189,-10.977844c-3.467087,0.838867 -11.814484,5.149231 -18.549728,9.578735c-6.735245,4.429443 -12.788498,8.053589 -13.45166,8.053589c-3.036652,0 -0.593185,-7.067993 6.08252,-17.594482l7.288208,-11.49231l-9.832794,-19.962982c-5.40802,-10.979645 -14.478867,-28.074554 -20.15741,-37.988708c-10.541321,-18.403992 -17.338028,-38.988556 -17.338028,-52.510193c0,-13.904846 4.129303,-10.322296 10.535004,9.140106c9.033173,27.445251 45.450058,95.270508 51.167099,95.296997c5.986237,0.02771 4.101334,-8.640686 -6.983734,-32.117371c-11.380447,-24.102325 -66.578568,-173.088806 -69.908112,-188.690613c-2.49646,-11.697968 -5.478424,-3.767487 -10.470764,27.84671c-2.639648,16.715729 -6.29261,37.235016 -8.117676,45.598419c-6.015114,27.564301 -8.567062,58.566956 -6.287788,76.388275c1.808189,14.138031 3.594559,18.673279 11.518349,29.242706c24.271317,32.375183 32.496262,52.369385 36.878906,89.649719c1.819061,15.473389 5.462265,36.028992 8.096069,45.679138c11.527512,42.236389 38.241287,102.18811 54.208588,121.656067c16.300812,19.874695 21.215057,31.213928 22.44429,51.788818c0.975571,16.329224 0.487198,18.940613 -5.651276,30.218994c-12.028244,22.099915 -7.878784,53.894043 9.196381,70.464905c11.301514,10.967773 19.316803,13.59613 39.294525,12.885559c12.277374,-0.436707 18.746368,-2.214722 31.582123,-8.680542zm149.719818,-48.02356c10.726715,-37.303833 41.740723,-89.769653 72.214172,-122.163025c9.692261,-10.30304 17.622375,-19.330994 17.622375,-20.062195c0,-0.731201 -4.772766,-4.126465 -10.60614,-7.545044c-12.435608,-7.28772 -17.466858,-15.722168 -17.466858,-29.281616c0,-12.028015 -7.866211,-58.296448 -13.686096,-80.501038c-2.360779,-9.006775 -8.273071,-26.307129 -13.138489,-38.445129c-8.256226,-20.597046 -8.925201,-24.108276 -10.0289,-52.636871c-1.604919,-41.484161 -7.568695,-57.868744 -43.410522,-119.264008c-5.944519,-10.182648 -13.886902,-27.026459 -17.649811,-37.430664c-7.766815,-21.474823 -16.71756,-62.064819 -16.71756,-75.811005c0,-16.2798 -9.040955,-17.617447 -25.4953,-3.772064c-9.122803,7.676361 -9.027588,8.855469 3.424835,42.419983c9.547913,25.735504 30.457886,68.597534 45.262329,92.780273c5.403625,8.826752 9.420746,16.452606 8.926941,16.946411c-2.255188,2.255127 -21.161102,-17.107269 -30.568512,-31.306549c-17.461395,-26.355865 -26.442291,-44.81604 -36.672394,-75.380005c-17.383606,-51.935959 -25.906525,-63.414368 -81.854584,-110.239563c-14.793549,-12.381287 -37.675507,-32.6465 -50.848846,-45.033722c-13.173294,-12.387268 -25.595245,-22.522308 -27.604309,-22.522308c-6.16066,0 -17.45697,6.930481 -17.45697,10.71019c0,9.593643 27.420364,44.005829 66.029785,82.86644c45.633667,45.930481 58.491913,64.272766 77.687836,110.821442c11.971375,29.029541 25.153381,52.221802 40.139618,70.62088c10.727844,13.170868 9.661438,16.141022 -3.374908,9.399689c-12.290985,-6.355927 -26.176453,-24.539032 -38.181152,-49.998413c-41.460663,-87.929108 -48.446259,-98.484802 -93.119659,-140.710007c-29.364639,-27.755417 -35.801376,-35.297516 -55.242813,-64.729568c-24.174866,-36.597961 -35.123657,-47.695984 -47.054672,-47.695984c-10.040436,0 -14.77774,7.362503 -16.42482,25.526627c-1.261948,13.917221 -1.23082,14.005096 5.477966,15.452103c25.326477,5.462585 32.937729,12.146439 53.297226,46.803223c12.594208,21.438354 25.135025,38.339157 51.488144,69.388702c35.084641,41.337158 43.528275,57.664795 65.649582,126.948029c13.774628,43.14151 14.093445,44.389709 10.82193,42.367828c-4.727203,-2.9216 -18.166412,-30.311066 -32.208435,-65.641663c-16.935181,-42.609924 -29.472443,-62.858826 -60.111328,-97.085724c-22.584808,-25.229675 -30.480408,-36.16777 -49.370468,-68.394928c-14.377899,-24.529297 -22.050156,-32.552521 -35.31488,-36.930283c-12.259674,-4.046036 -14.33287,-1.051025 -10.966415,15.842697c4.031647,20.231995 6.315277,56.730682 3.549438,56.730682c-1.280319,0 -4.427902,-5.526886 -6.994629,-12.281937c-2.566711,-6.755066 -6.104462,-12.281937 -7.861664,-12.281937c-5.710991,0 -9.375771,23.489883 -8.394661,53.806549c1.006714,31.10788 2.571655,37.953369 7.702927,33.694824c1.779747,-1.477081 3.235909,-3.972626 3.235909,-5.545715c0,-1.573029 2.105469,-4.765472 4.678818,-7.09436c3.221954,-2.915833 4.682907,-7.217285 4.691895,-13.814209c0.018585,-13.638214 4.134735,-26.676743 9.293182,-29.437439c7.260635,-3.885773 17.570236,-2.706207 26.023911,2.977478c11.773575,7.915802 42.247681,62.187988 59.594864,106.134186c5.001617,12.670776 17.798126,40.758881 28.436584,62.41803c10.638519,21.659149 19.342773,40.369476 19.342773,41.578552c0,4.71344 -11.245758,-5.546661 -22.640625,-20.656189c-14.96814,-19.847626 -26.583191,-42.959137 -34.450195,-68.548615c-3.352493,-10.904846 -10.564606,-27.78775 -16.026962,-37.517609c-5.462311,-9.729828 -16.247894,-28.925537 -23.967972,-42.657074c-14.340027,-25.506409 -19.49762,-29.828522 -24.481567,-20.51593c-3.892822,7.273865 -3.003693,13.866608 8.129257,60.275208c8.745682,36.457184 14.995728,55.190186 36.528854,109.486206c34.779526,87.69696 42.831238,110.578491 53.723785,152.673889c10.126984,39.136902 14.158295,50.502075 26.943634,75.960815c25.756653,51.287903 68.276794,100.485352 108.00061,124.960938c9.943329,6.126465 22.461548,14.660645 27.818329,18.964783c9.421112,7.569824 34.541321,38.228821 40.362,49.261414c1.568634,2.973267 3.998474,5.023682 5.399628,4.556641c1.401123,-0.46698 4.953461,-9.216064 7.893982,-19.442322z"/>
  </g>
 </g>
</svg>